<svg xmlns="http://www.w3.org/2000/svg" viewBox="0 0 64 64" fill="none">
  <!-- Llave izquierda { -->
  <path d="M20 8 C16 8 14 10 14 14 L14 20 C14 23 12 25 9 26 C12 27 14 29 14 32 L14 38 C14 42 16 44 20 44"
        stroke="#2563EB" stroke-width="3.5" stroke-linecap="round" stroke-linejoin="round"/>
  <!-- Llave derecha } -->
  <path d="M30 8 C34 8 36 10 36 14 L36 20 C36 23 38 25 41 26 C38 27 36 29 36 32 L36 38 C36 42 34 44 30 44"
        stroke="#2563EB" stroke-width="3.5" stroke-linecap="round" stroke-linejoin="round"/>
  <!-- Líneas de velocidad -->
  <line x1="45" y1="20" x2="62" y2="20" stroke="#2563EB" stroke-width="3.5" stroke-linecap="round"/>
  <line x1="45" y1="26" x2="59" y2="26" stroke="#2563EB" stroke-width="3.5" stroke-linecap="round"/>
  <line x1="45" y1="32" x2="54" y2="32" stroke="#2563EB" stroke-width="3.5" stroke-linecap="round"/>
</svg>
